<svg xmlns="http://www.w3.org/2000/svg" height="50" width="100" xml:space="preserve" y="0" x="0" id="Layer_1" version="1.1" viewBox="-157.095 -48.575 1361.49 291.45"><style id="style454" type="text/css">.st0{fill:#1877f2}</style><g transform="translate(-13.5 -3.7)" id="g484"><g id="g462"><path id="path458" d="M1060.8 100.8c0-53.6-43.5-97.1-97.1-97.1-53.6 0-97.1 43.5-97.1 97.1 0 48.5 35.5 88.7 82 95.9v-67.9h-24.8v-28h24.8V79.4c0-24.3 14.4-37.8 36.6-37.8 10.6 0 21.6 2 21.6 2v23.7h-12.2c-12.1 0-15.9 7.6-15.9 15.2v18.2h27l-4.3 28h-22.7v67.9c46.6-7.1 82.1-47.3 82.1-95.8z" class="st0"/><path id="path460" d="M1001.5 128.9l4.3-28h-27V82.7c0-7.7 3.9-15.2 15.9-15.2h12.2V43.7s-11-2-21.6-2c-22.2 0-36.6 13.5-36.6 37.8v21.4h-24.8v28h24.8v67.9c4.9.8 10 1.2 15.1 1.2s10.2-.4 15.1-1.2v-67.9z" fill="#fff"/></g><g id="g482"><g id="g480"><path id="path464" d="M29.8 159.1H13.5V42.5h79.2v14.2H29.8v40.8h54.6v14.2H29.8z" class="st0"/><path id="path466" d="M128.7 50.9c0 2.9-.9 5.3-2.8 7-1.9 1.7-4.3 2.6-7.2 2.6-2.9 0-5.3-.9-7.2-2.6-1.9-1.7-2.8-4.1-2.8-7 0-2.9.9-5.3 2.8-7 1.9-1.7 4.3-2.6 7.2-2.6 2.9 0 5.3.9 7.2 2.6 1.8 1.8 2.8 4.1 2.8 7zm-2.2 108.2h-15.6V75.8h15.6z" class="st0"/><path id="path468" d="M227.2 159.1h-15.6v-48.4c0-7.2-1.8-12.8-5.5-16.9-3.7-4.1-8.7-6.1-15.1-6.1-8 0-14.4 2.6-19.1 7.7-4.8 5.1-7.2 11.7-7.2 19.8v44H149V75.8h15.2l.3 12.6c3.2-4.4 7.5-7.9 12.8-10.6 5.3-2.7 11.2-4 17.5-4 10.1 0 18 3.1 23.8 9.3 5.8 6.2 8.7 14.7 8.7 25.5v50.5z" class="st0"/><path id="path470" d="M331 159.1h-15.2l-.3-12.6c-3.4 4.4-7.8 8-13.2 10.6-5.4 2.6-11.3 4-17.7 4-7.7 0-14.6-1.9-20.7-5.7-6.1-3.8-10.9-8.9-14.4-15.5s-5.2-14.1-5.2-22.4c0-8.4 1.7-15.9 5.2-22.4 3.5-6.6 8.3-11.8 14.4-15.5 6.1-3.8 13-5.7 20.7-5.7 6.3 0 12.2 1.3 17.6 3.9 5.4 2.6 9.8 6.1 13.2 10.4V35l15.6-1.7zm-43.2-11.8c5.4 0 10.2-1.3 14.3-3.8 4.2-2.6 7.4-6.1 9.8-10.5 2.4-4.5 3.5-9.6 3.5-15.4 0-5.8-1.2-11-3.5-15.4-2.4-4.5-5.6-8-9.8-10.5-4.2-2.6-8.9-3.8-14.3-3.8s-10.2 1.3-14.3 3.8c-4.2 2.6-7.4 6.1-9.8 10.5-2.4 4.5-3.5 9.6-3.5 15.4 0 5.8 1.2 11 3.5 15.4 2.4 4.5 5.6 8 9.8 10.5 4.2 2.5 9 3.8 14.3 3.8z" class="st0"/><path id="path472" d="M468.2 159.1H453l-.3-12.5c-3.2 4.4-7.4 7.9-12.6 10.5-5.2 2.6-11 4-17.2 4-10.1 0-18-3.1-23.6-9.3-5.6-6.2-8.4-14.7-8.4-25.5V75.8h15.6v48.4c0 7.2 1.7 12.8 5.2 16.9 3.5 4.1 8.5 6.1 14.9 6.1 8 0 14.3-2.6 18.9-7.7 4.6-5.1 6.9-11.7 6.9-19.8v-44H468v83.4z" class="st0"/><path id="path474" d="M485.1 150.8l6.6-11.8c4.7 2.8 9.5 4.9 14.6 6.2 5.1 1.4 10.2 2.1 15.4 2.1 6 0 10.5-.9 13.3-2.7 2.8-1.8 4.2-4.4 4.2-7.7 0-3.6-1.7-6.2-5.1-7.7-3.4-1.5-8.9-3.2-16.6-5.1-5.3-1.3-10.3-2.8-15-4.7-4.7-1.8-8.4-4.4-11.3-7.6-2.9-3.2-4.3-7.6-4.3-13.1 0-5.3 1.4-9.8 4.2-13.5 2.8-3.7 6.6-6.5 11.4-8.5 4.8-1.9 10.1-2.9 16-2.9 6.2 0 12.3 1 18.5 2.9 6.2 1.9 11.3 4.3 15.6 7.2L546 95.6c-4.1-2.4-8.4-4.4-13.1-5.9-4.7-1.5-9.3-2.2-14-2.2-4.7 0-8.6.8-11.6 2.5s-4.5 4.3-4.5 7.8c0 3.7 1.8 6.3 5.4 7.8 3.6 1.5 9.1 3.2 16.4 5 5.6 1.3 10.7 2.9 15.4 4.8 4.6 1.9 8.3 4.4 11.1 7.7 2.8 3.2 4.2 7.6 4.2 13.2 0 7.9-3 14-8.9 18.3-5.9 4.3-14 6.5-24.3 6.5-7.5 0-14.4-1-20.9-3.1-6.5-2.1-11.9-4.5-16.1-7.2z" class="st0"/><path id="path476" d="M649.4 161.1c-8.7 0-16.3-1.9-22.8-5.6-6.5-3.7-11.7-8.9-15.3-15.4-3.7-6.5-5.5-14.1-5.5-22.6 0-8.5 1.8-16.1 5.5-22.6s8.8-11.7 15.3-15.4c6.5-3.7 14.2-5.6 22.8-5.6 8.6 0 16.3 1.9 22.8 5.6 6.5 3.7 11.7 8.9 15.3 15.4 3.7 6.5 5.5 14.1 5.5 22.6 0 8.5-1.8 16.1-5.5 22.6s-8.8 11.7-15.3 15.4c-6.6 3.7-14.2 5.6-22.8 5.6zm0-13.8c5.4 0 10.2-1.3 14.3-3.8 4.2-2.6 7.4-6.1 9.8-10.5 2.4-4.5 3.5-9.6 3.5-15.4 0-5.8-1.2-11-3.5-15.4-2.4-4.5-5.6-8-9.8-10.5-4.2-2.6-8.9-3.8-14.3-3.8s-10.2 1.3-14.3 3.8c-4.2 2.6-7.4 6.1-9.8 10.5-2.4 4.5-3.5 9.6-3.5 15.4 0 5.8 1.2 11 3.5 15.4 2.4 4.5 5.6 8 9.8 10.5 4.1 2.5 8.9 3.8 14.3 3.8z" class="st0"/><path id="path478" d="M789 159.1h-15.6v-48.4c0-7.2-1.8-12.8-5.5-16.9-3.7-4.1-8.7-6.1-15.2-6.1-8 0-14.4 2.6-19.1 7.7-4.8 5.1-7.2 11.7-7.2 19.8v44h-15.6V75.8h15.1l.3 12.6c3.2-4.4 7.5-7.9 12.8-10.6 5.3-2.7 11.2-4 17.5-4 10.1 0 18 3.1 23.8 9.3 5.8 6.2 8.7 14.7 8.7 25.5z" class="st0"/></g></g></g></svg>