<?xml version="1.0" ?><svg width="52" height="28" viewBox="0 0 72 72" xmlns="http://www.w3.org/2000/svg"><g fill="none" fill-rule="evenodd"><path d="M36,72 L36,72 C55.882251,72 72,55.882251 72,36 L72,36 C72,16.117749 55.882251,-3.65231026e-15 36,0 L36,0 C16.117749,3.65231026e-15 -2.4348735e-15,16.117749 0,36 L0,36 C2.4348735e-15,55.882251 16.117749,72 36,72 Z" fill="#E51E26"/><path d="M33.0831753,36.8771374 L32.9426592,37.52746 L32.3678204,36.8933955 C30.6839495,34.8855245 28.0989172,28.7306858 26.358143,25.8100407 C25.7531108,24.7962342 25.5928527,24.5883632 24.1214979,24.5256536 C21.7907882,24.4246213 19.9559495,24.7927503 18.3824011,25.8030729 C18.0003366,30.3007503 17.3848527,46.0222987 19.5587882,50.1204923 C20.4390463,51.7788149 25.3791753,50.4665568 26.6449817,49.6745568 C26.746014,47.111589 26.2327237,44.9597181 26.2187882,42.5941697 L31.930014,50.6616536 C33.5767237,50.7557181 39.2008527,51.0297826 39.8534979,49.5758471 C40.1182721,48.9847503 40.2715624,46.7144278 40.3087237,46.0838471 C40.398143,44.5718471 40.4445946,43.0644923 40.4829172,41.5501697 C40.5363366,39.3762342 40.4956914,34.9331374 40.9648527,33.0077181 C41.6569817,33.9564923 43.5742721,41.363202 44.070143,43.1260407 C45.0839495,46.727202 46.0756914,49.8092665 47.4483366,53.0817826 C48.5469172,53.1444923 52.5800785,52.1829439 53.6751753,51.8577826 C52.7542721,47.2265568 50.245885,37.5878471 48.9882075,32.5931374 C48.1799495,29.3891374 47.4007237,26.2408794 46.4031753,23.1007503 C46.1558204,22.3261697 45.9189172,21.5933955 45.6564656,20.8699116 C45.2488527,19.7492665 45.3115624,19.6842342 44.1049817,19.4322342 C42.3746592,19.0710729 40.1589172,18.791202 38.4169817,19.2081052 C36.2430463,20.7804923 33.1365946,32.9066858 33.0831753,36.8771374" fill="#FFF"/></g></svg>